<?xml version="1.0" standalone="no"?><!DOCTYPE svg PUBLIC "-//W3C//DTD SVG 1.1//EN" "http://www.w3.org/Graphics/SVG/1.1/DTD/svg11.dtd"><svg t="1621343038985" class="icon" viewBox="0 0 1024 1024" version="1.1" xmlns="http://www.w3.org/2000/svg" p-id="3105" xmlns:xlink="http://www.w3.org/1999/xlink" width="128" height="128"><defs><style type="text/css"></style></defs><path d="M910.222 0H113.778C51.2 0 0 51.2 0 113.778v568.889c0 62.577 51.2 113.777 113.778 113.777h796.444c62.578 0 113.778-51.2 113.778-113.777v-568.89C1024 51.2 972.8 0 910.222 0z m0 625.778c0 34.133-22.755 56.889-56.889 56.889H170.667c-34.134 0-56.89-22.756-56.89-56.89v-455.11c0-34.134 22.756-56.89 56.89-56.89h682.666c34.134 0 56.89 22.756 56.89 56.89v455.11z" p-id="3106"></path><path d="M227.556 284.444h113.777V568.89H227.556zM455.11 398.222H568.89V568.89H455.11z m227.556-56.889h113.777V568.89H682.667zM0 910.223h1024V1024H0z" p-id="3107"></path></svg>