<?xml version="1.0" standalone="no"?><!DOCTYPE svg PUBLIC "-//W3C//DTD SVG 1.1//EN" "http://www.w3.org/Graphics/SVG/1.1/DTD/svg11.dtd"><svg t="1621944458116" class="icon" viewBox="0 0 1024 1024" version="1.1" xmlns="http://www.w3.org/2000/svg" p-id="13044" xmlns:xlink="http://www.w3.org/1999/xlink" width="128" height="128"><defs><style type="text/css"></style></defs><path d="M197.7344 882.944h120.6528c30.4896 0 55.1936-25.9584 55.1936-58.0864V247.3216c0-32.1024-24.704-58.0864-55.1936-58.0864H197.7344c-30.5152 0-55.1936 25.984-55.1936 58.112v577.536c0 31.9488 24.832 58.0864 55.1936 58.0864z m18.4064-616.2432h83.84v538.8032H216.1408V266.7008zM497.408 882.944h120.6528c30.5152 0 55.1936-25.984 55.1936-58.112V85.7856c0-32.1024-24.6784-58.0864-55.1936-58.0864H497.408c-30.5152 0-55.1936 25.984-55.1936 58.112v739.072c0 31.9488 24.832 58.0864 55.1936 58.0864z m18.4064-777.8048h83.84v700.3392H515.84V105.1648z m281.2928 777.8048h120.6528c30.5152 0 55.1936-25.984 55.1936-58.112V459.6992c0-32.128-24.6784-58.112-55.1936-58.112h-120.6528c-30.4896 0-55.1936 25.984-55.1936 58.112V824.832c0 31.9744 24.832 58.112 55.1936 58.112z m18.4064-403.9168h83.84v326.4512h-83.84V479.0528z" p-id="13045"></path><path d="M985.856 937.8304H74.752V39.808c0-21.4528-16.384-38.7328-36.7872-38.7328C17.6128 1.0752 1.2032 18.3552 1.2032 39.808v935.936c0 8.8832 2.7648 16.9472 7.5008 23.3984 6.7584 9.6768 17.664 16.128 29.9008 16.128h947.4048c20.3776 0 36.7872-17.2544 36.7872-38.7072-0.1536-21.2992-16.5632-38.7328-36.9408-38.7328z"  p-id="13046"></path></svg>