<?xml version="1.0" standalone="no"?><!DOCTYPE svg PUBLIC "-//W3C//DTD SVG 1.1//EN" "http://www.w3.org/Graphics/SVG/1.1/DTD/svg11.dtd"><svg t="1621595429432" class="icon" viewBox="0 0 1024 1024" version="1.1" xmlns="http://www.w3.org/2000/svg" p-id="6664" xmlns:xlink="http://www.w3.org/1999/xlink" width="128" height="128"><defs><style type="text/css"></style></defs><path d="M523.968 186.368A260.352 260.352 0 0 1 689.088 128C842.624 128 960 241.28 960 382.016c0 129.28-81.472 250.496-214.4 364.352a1295.744 1295.744 0 0 1-138.88 103.04l-20.16 12.864c-18.944 11.84-34.048 20.544-44.096 25.984L512 904.768l-30.464-16.512a883.264 883.264 0 0 1-44.16-25.984l-20.16-12.8a1295.744 1295.744 0 0 1-138.88-103.104C145.472 632.512 64 511.36 64 382.016 64 241.28 181.376 128 334.912 128c58.112 0 117.44 18.56 165.504 58.304l11.776 10.432 11.776-10.368z m165.12 5.632C648.512 192 556.8 209.984 512 304 467.2 209.984 377.6 192 334.912 192 211.2 192 128 281.984 128 382.016c0 210.432 290.368 395.136 366.08 439.744L512 832l17.92-10.24C605.632 777.152 896 592.448 896 382.08 896 281.984 812.8 192 689.088 192z" p-id="6665"></path></svg>