<svg t="1620619734526" class="icon" viewBox="0 0 1024 1024" version="1.1" xmlns="http://www.w3.org/2000/svg" p-id="13048" width="128" height="128"><path d="M772.681143 833.024c0 33.206857-27.062857 60.269714-60.342857 60.269714H277.650286a60.416 60.416 0 0 1-60.342857-60.269714V192.585143h555.373714v640.438857zM337.92 84.333714c0-7.021714 5.412571-12.434286 12.434286-12.434285h290.011428c6.948571 0 12.361143 5.412571 12.361143 12.434285v36.352H337.92v-36.352z m615.643429 36.352h-228.937143v-36.352C724.699429 37.888 686.811429 0 640.438857 0H350.354286c-46.372571 0-84.260571 37.888-84.260572 84.333714v36.352H36.352a36.278857 36.278857 0 1 0 0 72.704h108.251429v639.634286c0 73.435429 59.611429 132.973714 133.12 132.973714h434.614857a133.046857 133.046857 0 0 0 133.046857-132.973714V192.585143h108.251428a36.278857 36.278857 0 0 0 36.352-36.352 35.693714 35.693714 0 0 0-36.352-35.547429z m-458.605715 663.552a36.278857 36.278857 0 0 0 36.352-36.352V361.179429a36.278857 36.278857 0 1 0-72.704 0v386.706285c0 20.114286 16.237714 36.352 36.352 36.352z m-169.398857 0a36.278857 36.278857 0 0 0 36.352-36.352V361.179429a36.278857 36.278857 0 1 0-72.704 0v386.706285a37.302857 37.302857 0 0 0 36.352 36.352z m338.724572 0a36.278857 36.278857 0 0 0 36.352-36.352V361.179429a36.278857 36.278857 0 1 0-72.704 0v386.706285c0 20.114286 16.237714 36.352 36.352 36.352z"  p-id="13049"></path></svg>