<?xml version="1.0" standalone="no"?><!DOCTYPE svg PUBLIC "-//W3C//DTD SVG 1.1//EN" "http://www.w3.org/Graphics/SVG/1.1/DTD/svg11.dtd"><svg t="1620789860071" class="icon" viewBox="0 0 1113 1024" version="1.1" xmlns="http://www.w3.org/2000/svg" p-id="16197" xmlns:xlink="http://www.w3.org/1999/xlink" width="139.125" height="128"><defs><style type="text/css"></style></defs><path d="M776.94887 916.613565a40.381217 40.381217 0 0 1 0 80.762435h-233.917218a40.381217 40.381217 0 0 1 0-80.762435h233.917218zM863.321043 0c44.210087 0 80.094609 36.685913 80.094609 80.896v179.333565c0 17.541565-14.202435 32.545391-31.699478 32.545392a31.877565 31.877565 0 0 1-31.699478-32.50087V80.851478a16.740174 16.740174 0 0 0-16.695653-16.65113H81.741913a16.740174 16.740174 0 0 0-16.695652 16.65113V904.236522c0 9.171478 7.524174 16.695652 16.695652 16.695652h331.152696c17.497043 0 31.699478 14.157913 31.699478 32.500869 0 17.541565-14.202435 32.545391-31.699478 32.545392l-331.152696-0.845913c-43.364174 0-80.094609-36.685913-80.094609-80.896V80.896C1.647304 36.685913 38.377739 0 81.786435 0H863.276522z m-23.373913 329.549913l222.074435 212.813913-138.195478 136.94887 182.361043 180.268521-56.720695 57.433044-182.984348-180.802783-121.766957 120.742957-224.166956-204.087652 246.516869-256.934957 2.003479-1.914435 70.878608-64.467478z m-409.555478 356.930783c18.387478 0 33.391304 15.003826 33.391305 33.391304 0 18.342957-15.003826 33.346783-33.391305 33.346783H222.697739a33.480348 33.480348 0 0 1-33.391304-33.391305c0-18.342957 15.048348-33.346783 33.391304-33.346782h207.693913z m408.130783-246.472348l-14.113392 12.866782-188.148869 196.07374 106.050783 96.612173 203.954086-202.217739-107.742608-103.334956z m-408.130783 19.589565c18.387478 0 33.391304 15.003826 33.391305 33.391304 0 18.342957-15.003826 33.346783-33.391305 33.346783H222.697739a33.480348 33.480348 0 0 1-33.391304-33.391304c0-18.342957 15.048348-33.346783 33.391304-33.346783h207.693913z m274.432-226.882783c18.387478 0 33.391304 15.003826 33.391305 33.391305a32.946087 32.946087 0 0 1-33.391305 33.346782H222.697739a33.480348 33.480348 0 0 1-33.391304-33.391304c0-18.342957 15.048348-33.346783 33.391304-33.346783h482.170435z" p-id="16198"></path></svg>