<?xml version="1.0" standalone="no"?><!DOCTYPE svg PUBLIC "-//W3C//DTD SVG 1.1//EN" "http://www.w3.org/Graphics/SVG/1.1/DTD/svg11.dtd"><svg t="1621413241610" class="icon" viewBox="0 0 1024 1024" version="1.1" xmlns="http://www.w3.org/2000/svg" p-id="3905" xmlns:xlink="http://www.w3.org/1999/xlink" width="128" height="128"><defs><style type="text/css"></style></defs><path d="M53.888 0A54.08 54.08 0 0 0 0 53.888v916.224c0 29.632 24.256 53.888 53.888 53.888h603.072a54.08 54.08 0 0 0 53.888-53.888 54.08 54.08 0 0 0-53.888-53.888h-549.12V107.776h549.12a54.08 54.08 0 0 0 53.888-53.888 54.08 54.08 0 0 0-53.888-53.888z m729.216 271.616a54.336 54.336 0 0 0-76.544 1.088 53.696 53.696 0 0 0 0.512 75.968l110.528 109.44H402.048A54.08 54.08 0 0 0 348.16 512c0 29.632 24.256 53.888 53.888 53.888h416.064l-111.04 109.952a53.696 53.696 0 0 0-0.512 75.968 53.952 53.952 0 0 0 75.968 0l203.776-202.112c10.24-10.24 16.128-23.68 16.128-38.208a53.824 53.824 0 0 0-16.128-38.272z" p-id="3906"></path></svg>