<?xml version="1.0" standalone="no"?><!DOCTYPE svg PUBLIC "-//W3C//DTD SVG 1.1//EN" "http://www.w3.org/Graphics/SVG/1.1/DTD/svg11.dtd"><svg t="1621944201224" class="icon" viewBox="0 0 1024 1024" version="1.1" xmlns="http://www.w3.org/2000/svg" p-id="6858" xmlns:xlink="http://www.w3.org/1999/xlink" width="128" height="128"><defs><style type="text/css"></style></defs><path d="M404.95176648 175.37876068c-52.29307644-1.26392432-104.66625476-1.28668991-156.95680242 0.04553202-44.39586814 1.13070245-70.8177041 27.42437495-72.1187287 72.08247216-1.48146433 50.86810547-1.34065366 101.8365488-0.08684775 152.71477185 1.1576835 47.00128903 27.73972403 73.2207626 74.14741516 75.02769361 25.41676739 0.98820511 50.90351907 0.17622428 76.35991552 0.17622427 0 0.02360934 0 0.04637495 0 0.06914053 24.04070013 0 48.08224402 0.0050592 72.1237879-0.0075888 2.82717719-0.00084293 5.66531488 0.03457068 8.48068781-0.17875388 40.31572879-3.06158066 67.12458316-26.03903303 69.05208884-66.47533566 2.62144144-55.01485657 2.59530249-110.31892246 0.27993549-165.35485795C474.42628733 200.48186566 447.99349002 176.41839911 404.95176648 175.37876068zM405.55042276 359.23632361c-1.52615258 32.65292395-11.33737564 43.99873133-42.4818534 45.64377192-25.31727247 1.33643738-50.84196652 1.45448245-76.13478671-0.12310429-26.5491557-1.65600192-38.14370123-13.13587491-39.8233125-40.00628183-1.66780701-26.68996638-1.73610379-53.66239783 0.06998347-80.33550155 1.82801075-26.99182452 13.28343145-37.31654279 40.55097519-38.67321699 23.92265506-1.19141125 47.96925815-0.93086883 71.92479721-0.16863545 34.98262564 1.11468191 44.39924065 10.86688202 45.91780526 45.96080767 0.48735709 11.26401966 0.07588641 22.56682462 0.07588642 33.85192318C405.63389715 336.67034192 406.07656598 347.97567732 405.55042276 359.23632361z" p-id="6859"></path><path d="M476.472681 631.8316607c-4.04894201-49.52070593-34.50201362-81.53787332-84.16690356-84.67449664-43.66314624-2.7571929-87.77992264-2.81199958-131.43716675-0.01011841-51.04095639 3.27659107-83.14497153 37.77185962-85.01598386 88.47048587-1.5109758 40.96413254-1.48736646 82.07160534 0 123.0382675 1.839815 50.69778333 34.71449441 86.21329724 84.6053561 89.09528109 43.69940276 2.52363235 87.75884289 2.38450837 131.4784825 0.04974747 48.61260352-2.59614624 80.24612421-35.35952647 84.4814089-84.51176331 1.81367688-21.05331922 0.30270108-42.39416272 0.30270108-63.60347021 0.02192267-0.00084293 0.04300241-0.00084293 0.06576801-0.00084293C476.78718717 677.05805899 478.31081015 654.30742212 476.472681 631.8316607zM405.43996649 735.13955542c-1.80524514 28.64023847-10.2775004 39.24067593-37.59647826 41.03158722-28.03146378 1.8372854-56.31335074 1.0640907-84.42997559-0.01939306-21.1030675-0.81366669-34.78785123-12.98410291-35.7878606-34.30892587-1.38196939-29.48510247-2.06747342-59.20207965 0.07251307-88.59274641 1.7791062-24.44458283 13.16622931-33.36035064 39.40172341-34.5441731 25.300409-1.14250672 50.72139185-1.09107257 76.03191925-0.09780908 30.58545053 1.19984299 40.27525598 10.88037295 42.27611765 40.50122773 0.85160989 12.61732049 0.14249735 25.33919513 0.14249733 38.0138519C405.57318836 709.79783068 406.23592678 722.51548904 405.43996649 735.13955542z" p-id="6860"></path><path d="M616.29441314 474.77030413c55.08315335 1.79849927 110.31639285 1.83897207 165.39533076-0.02360933 39.63865649-1.33981072 64.68358227-28.2751419 66.70046448-68.30587601 1.35161499-26.79789385 0.25885574-53.71720449 0.25885574-80.58339597 0.04890454 0 0.09696533 0 0.14755655 0 0-24.03732761 0.0025296-48.07465521-0.00421628-72.11282657-0.00084293-2.82802012 0.07672934-5.66362903-0.09949493-8.48237366-2.66697345-42.66313687-26.91087973-68.55714294-69.59172299-69.75024087-53.6868501-1.50254407-107.47994101-1.46544378-161.17016447 0.02192267-40.58470212 1.12311365-67.33284851 26.34763623-68.70301282 65.95846793-1.90474009 55.07725122-1.80187179 110.30543152-0.14924239 165.39786034C550.27186389 446.68909289 576.66924759 473.47686835 616.29441314 474.77030413zM700.85592475 245.36593381c76.78150461 0.01264802 77.82620224 1.06577737 77.83547772 78.4594292 0.01096133 79.785749-1.63660886 81.46788986-79.75117832 81.46451734-77.77729852-0.0025296-78.78826922-2.51267102-80.61037701-81.31696079C616.35259234 238.44175381 635.27520057 243.94517829 700.85592475 245.36593381z" p-id="6861"></path><path d="M848.65328039 624.28015506c-1.22007898-50.08900864-25.51710525-75.31184454-75.83798776-77.99905399-24.034798-1.28331738-48.19438696-0.22091253-72.2983255-0.22091253 0 0.02192267 0 0.04468826 0 0.06745386-25.52132153 0-51.04095639-0.01939307-76.56227792 0.02782479-2.82633344 0.00421628-5.67121702 0.24873733-8.4756286 0.6214227-40.60746853 5.38369354-65.34041775 29.55761636-66.47364982 69.74686753-1.51856378 53.83271997-1.50422992 107.77589704 0.01602055 161.60945993 1.12311365 39.76007409 26.86619064 66.54279035 66.40872473 69.59340967 29.59808835 2.28248382 59.56633246 1.78247873 89.25295523 0.25716907 23.74811746-1.22007898 39.48182528-18.22108365 38.38316391-37.19934147-1.02699124-17.76155137-15.30031366-30.92862442-38.0391471-33.02645141-15.48581342-1.42750058-31.26336575 0.24789441-46.73147195-1.27572858-27.21779627-2.68046356-37.71115081-13.17044558-39.14286768-40.72635654-1.32210352-25.45133807-1.30945633-51.08058627 0.01011841-76.5336102 1.45026699-27.98424509 11.97819141-39.03831353 38.76175058-40.39330105 26.86956399-1.35920379 53.90776263-1.32126059 80.78491543-0.04974747 27.44545468 1.298495 37.52649482 11.902305 39.6083021 39.51555222 1.17033152 15.51701075-0.56071389 31.27179748 0.87353257 46.74749249 2.12312302 22.9226457 14.98665125 35.04249152 34.73304455 35.07200216 19.99007144 0.03035439 33.03741275-11.77920154 34.34180987-35.04164777C849.77302152 678.21574332 849.30927295 651.2011532 848.65328039 624.28015506z" p-id="6862"></path></svg>