<?xml version="1.0" encoding="utf-8"?>
<!-- Generator: Adobe Illustrator 22.0.0, SVG Export Plug-In . SVG Version: 6.00 Build 0)  -->
<svg version="1.1" id="图层_1" xmlns="http://www.w3.org/2000/svg" xmlns:xlink="http://www.w3.org/1999/xlink" x="0px" y="0px"
	 viewBox="0 0 1024 1024" style="enable-background:new 0 0 1024 1024;" xml:space="preserve">
<style type="text/css">
	.st0{fill:url(#SVGID_1_);}
	.st1{fill:#514F4C;}
	.st2{fill:url(#SVGID_2_);}
	.st3{fill:url(#SVGID_3_);}
	.st4{fill:url(#SVGID_4_);}
	.st5{fill:#5FBAD6;}
	.st6{fill:#174F68;}
	.st7{fill:url(#SVGID_5_);}
	.st8{fill:#97A5AF;}
	.st9{fill:#FFFDF3;}
	.st10{fill:#F2F0E7;}
</style>
<g>
	<g>
		<linearGradient id="SVGID_1_" gradientUnits="userSpaceOnUse" x1="317.6316" y1="213.345" x2="475.8676" y2="213.345">
			<stop  offset="0" style="stop-color:#FDE101"/>
			<stop  offset="1" style="stop-color:#FC8F02"/>
		</linearGradient>
		<polygon class="st0" points="396.7,138.1 421.2,187.6 475.9,195.6 436.3,234.1 445.6,288.6 396.7,262.9 347.9,288.6 357.2,234.1 
			317.6,195.6 372.3,187.6 		"/>
		<path class="st1" d="M396.7,138.1l24.4,49.5l54.7,7.9l-39.6,38.6l9.3,54.4l-48.9-25.7l-48.9,25.7l9.3-54.4l-39.6-38.6l54.7-7.9
			L396.7,138.1 M396.7,128.5c-3.7,0-7,2.1-8.6,5.4l-22.2,45l-49.7,7.2c-3.6,0.5-6.6,3.1-7.8,6.6c-1.1,3.5-0.2,7.3,2.4,9.9l35.9,35
			l-8.5,49.5c-0.6,3.6,0.9,7.3,3.8,9.4c1.7,1.2,3.7,1.8,5.7,1.8c1.5,0,3.1-0.4,4.5-1.1l44.4-23.3l44.4,23.3c1.4,0.7,2.9,1.1,4.5,1.1
			c2,0,4-0.6,5.7-1.8c3-2.2,4.5-5.8,3.8-9.4l-8.5-49.5l35.9-35c2.6-2.6,3.6-6.4,2.4-9.9c-1.1-3.5-4.1-6-7.8-6.6l-49.7-7.2l-22.2-45
			C403.8,130.5,400.4,128.5,396.7,128.5L396.7,128.5z"/>
	</g>
	<g>
		<linearGradient id="SVGID_2_" gradientUnits="userSpaceOnUse" x1="408.1366" y1="414.4653" x2="520.1171" y2="414.4653">
			<stop  offset="0" style="stop-color:#FDE101"/>
			<stop  offset="1" style="stop-color:#FC8F02"/>
		</linearGradient>
		<polygon class="st2" points="464.1,361.2 481.4,396.3 520.1,401.9 492.1,429.2 498.7,467.7 464.1,449.5 429.5,467.7 436.1,429.2 
			408.1,401.9 446.8,396.3 		"/>
		<path class="st1" d="M464.1,361.2l17.3,35.1l38.7,5.6l-28,27.3l6.6,38.5l-34.6-18.2l-34.6,18.2l6.6-38.5l-28-27.3l38.7-5.6
			L464.1,361.2 M464.1,351.6c-3.7,0-7,2.1-8.6,5.4l-15.1,30.5l-33.7,4.9c-3.6,0.5-6.6,3.1-7.8,6.6c-1.1,3.5-0.2,7.3,2.4,9.9
			l24.4,23.8l-5.8,33.5c-0.6,3.6,0.9,7.3,3.8,9.4c1.7,1.2,3.7,1.8,5.7,1.8c1.5,0,3.1-0.4,4.5-1.1l30.1-15.8l30.1,15.8
			c1.4,0.7,2.9,1.1,4.5,1.1c2,0,4-0.6,5.7-1.8c3-2.2,4.5-5.8,3.8-9.4l-5.8-33.5l24.4-23.8c2.6-2.6,3.6-6.4,2.4-9.9
			c-1.1-3.5-4.1-6-7.8-6.6l-33.7-4.9L472.8,357C471.1,353.7,467.8,351.6,464.1,351.6L464.1,351.6z"/>
	</g>
	<g>
		<linearGradient id="SVGID_3_" gradientUnits="userSpaceOnUse" x1="205.2831" y1="400.6042" x2="288.182" y2="400.6042">
			<stop  offset="0" style="stop-color:#FDE101"/>
			<stop  offset="1" style="stop-color:#FC8F02"/>
		</linearGradient>
		<polygon class="st3" points="246.7,361.2 259.5,387.1 288.2,391.3 267.5,411.5 272.3,440 246.7,426.6 221.1,440 226,411.5 
			205.3,391.3 233.9,387.1 		"/>
		<path class="st1" d="M246.7,361.2l12.8,26l28.6,4.2l-20.7,20.2l4.9,28.5l-25.6-13.5L221.1,440l4.9-28.5l-20.7-20.2l28.6-4.2
			L246.7,361.2 M246.7,351.5c-3.7,0-7,2.1-8.6,5.4l-10.6,21.4l-23.6,3.4c-3.6,0.5-6.6,3.1-7.8,6.6c-1.1,3.5-0.2,7.3,2.4,9.9
			l17.1,16.7l-4,23.5c-0.6,3.6,0.9,7.3,3.8,9.4c1.7,1.2,3.7,1.8,5.7,1.8c1.5,0,3.1-0.4,4.5-1.1l21.1-11.1l21.1,11.1
			c1.4,0.7,3,1.1,4.5,1.1c2,0,4-0.6,5.7-1.8c3-2.2,4.5-5.8,3.8-9.4l-4-23.5l17.1-16.7c2.6-2.6,3.6-6.4,2.4-9.9
			c-1.1-3.5-4.1-6-7.8-6.6l-23.6-3.4l-10.6-21.4C253.8,353.6,250.4,351.5,246.7,351.5L246.7,351.5z"/>
	</g>
	<g>
		<g>
			<linearGradient id="SVGID_4_" gradientUnits="userSpaceOnUse" x1="318.7219" y1="339.7676" x2="680.7573" y2="701.803">
				<stop  offset="0" style="stop-color:#6BA0B6"/>
				<stop  offset="1" style="stop-color:#1A5F71"/>
			</linearGradient>
			<path class="st4" d="M576.2,82.3c32.7,56.6,51.5,122.3,51.5,192.4c0,212.9-172.6,385.5-385.5,385.5
				c-60.3,0-117.3-13.8-168.1-38.5c66.6,115.4,191.2,193.1,334,193.1c212.9,0,385.5-172.6,385.5-385.5
				C793.6,276.6,704.9,144.7,576.2,82.3z"/>
			<path class="st1" d="M576.2,82.3c128.7,62.4,217.4,194.3,217.4,347c0,212.9-172.6,385.5-385.5,385.5
				c-142.8,0-267.4-77.7-334-193.1c50.8,24.7,107.8,38.5,168.1,38.5c212.9,0,385.5-172.6,385.5-385.5
				C627.7,204.6,608.9,138.9,576.2,82.3 M576.2,64.7c-4.8,0-9.4,1.9-12.8,5.6c-5.2,5.6-6.2,14-2.3,20.7
				c32.1,55.7,49.1,119.2,49.1,183.6c0,202.9-165.1,368-368,368c-56.2,0-110.2-12.4-160.4-36.7c-2.4-1.2-5.1-1.8-7.6-1.8
				c-4.8,0-9.4,1.9-12.8,5.6c-5.2,5.6-6.2,14-2.3,20.7c71.9,124.5,205.7,201.9,349.2,201.9c222.2,0,403-180.8,403-403
				c0-153.4-89.2-295.7-227.3-362.7C581.4,65.3,578.8,64.7,576.2,64.7L576.2,64.7z"/>
		</g>
		<g>
			<path class="st5" d="M627.7,274.6c0,212.9-172.6,385.5-385.5,385.5c-60.3,0-117.3-13.8-168.1-38.5c1.7,3,3.7,5.9,5.5,8.9
				c53.2,27.7,113.5,43.5,177.7,43.5c212.9,0,385.5-172.6,385.5-385.5c0-73.7-20.8-142.4-56.7-201c-3.3-1.7-6.5-3.6-9.9-5.2
				C608.9,138.9,627.7,204.6,627.7,274.6z"/>
		</g>
		<g>
			<path class="st6" d="M275.8,789.4c41.3,15.1,85.8,23.5,132.3,23.5c212.9,0,385.5-172.6,385.5-385.5c0-30.1-3.6-59.4-10.1-87.5
				c1.3,13.4,2,26.9,2,40.6c0,231.4-187.6,419-419,419C335.3,799.5,305,795.9,275.8,789.4z"/>
		</g>
	</g>
	<g>
		<g>
			<linearGradient id="SVGID_5_" gradientUnits="userSpaceOnUse" x1="121.2558" y1="684.9014" x2="948.1303" y2="684.9014">
				<stop  offset="0" style="stop-color:#E8E3D1"/>
				<stop  offset="1" style="stop-color:#A7B5C6"/>
			</linearGradient>
			<path class="st7" d="M948.1,702.7c0-39.9-34.2-73.4-80.3-82.8c0-1.4,0.1-2.7,0.1-4.1c0-92.9-106.3-168.3-237.5-168.3
				c-75.1,0-142,24.7-185.5,63.3c-9.3-1-18.7-1.7-28.4-1.7c-113.4,0-205.3,71.7-205.3,160.1c0,5.9,0.5,11.7,1.3,17.4
				c-1.4-0.1-2.7-0.2-4.1-0.2c-48.2,0-87.3,36.3-87.3,81c0,44.7,39.1,81,87.3,81c5.2,0,10.2-0.5,15.2-1.3
				c19.5,23.9,52.8,39.6,90.7,39.6c46.7,0,86.4-23.9,101.8-57.5c0.2,0,0.3,0,0.5,0c0.2,0,0.5,0,0.7,0
				c12.9,35.6,53.8,61.6,102.3,61.6c31.7,0,60.1-11.2,79.6-28.8c19.7,35.4,66,60.2,120,60.2c71.9,0,130.2-44.1,130.2-98.5
				c0-12.6-3.2-24.6-8.9-35.6c0.4,0,0.7,0,1,0C900.4,788.2,948.1,749.9,948.1,702.7z"/>
			<path class="st1" d="M630.5,447.5c131.2,0,237.5,75.3,237.5,168.3c0,1.4-0.1,2.7-0.1,4.1c46.1,9.4,80.3,42.8,80.3,82.8
				c0,47.2-47.7,85.5-106.6,85.5c-0.4,0-0.7,0-1,0c5.7,11.1,8.9,23,8.9,35.6c0,54.4-58.3,98.5-130.2,98.5c-54,0-100.2-24.8-120-60.2
				c-19.5,17.6-47.9,28.8-79.6,28.8c-48.5,0-89.4-26-102.3-61.6c-0.2,0-0.5,0-0.7,0c-0.2,0-0.3,0-0.5,0
				c-15.4,33.5-55.1,57.5-101.8,57.5c-37.9,0-71.2-15.8-90.7-39.6c-4.9,0.8-10,1.3-15.2,1.3c-48.2,0-87.3-36.3-87.3-81
				c0-44.7,39.1-81,87.3-81c1.4,0,2.8,0.1,4.1,0.2c-0.8-5.7-1.3-11.5-1.3-17.4c0-88.4,91.9-160.1,205.3-160.1
				c9.7,0,19.1,0.7,28.4,1.7C488.6,472.3,555.5,447.5,630.5,447.5 M630.5,427.7c-73.8,0-143.2,22.7-192,62.6c-7.9-0.7-15-1-21.9-1
				c-123.6,0-224.2,80-225.2,178.6c-51,7.7-90.1,49.4-90.1,99.6c0,55.6,48.1,100.9,107.1,100.9c2.4,0,4.9-0.1,7.3-0.3
				c24.3,24.3,60.3,38.6,98.5,38.6c40.5,0,77.3-15.5,101.2-41.3c23,28,61.4,45.4,104.1,45.4c27.1,0,53.5-7.3,75.1-20.6
				c27.5,32.2,74,52.1,124.5,52.1c82.7,0,150.1-53.1,150.1-118.4c0-6-0.6-12-1.7-17.9c57.3-10,100.4-52.5,100.4-103.1
				c0-44-32.4-82.7-80.6-98.2C879.4,506,767.3,427.7,630.5,427.7L630.5,427.7z"/>
		</g>
		<g>
			<path class="st1" d="M448.4,508.1c0,0-80.2,62.1-53,178c0,0-51.7-127.4,43.1-194.5L448.4,508.1z"/>
		</g>
		<path class="st8" d="M915,642.7c3.4,5.1,6.2,10.6,8.3,16.5c17.2,48-17.3,102.8-77.1,122.5c-23.3,7.7-47,8.8-68.3,4.5
			c25.7,14.7,60.6,18.4,94.6,7.2c55.7-18.3,87.8-69.3,71.7-114C938.8,664.2,928.4,651.8,915,642.7z"/>
		<path class="st8" d="M837,790.9c1,4.8,1.6,9.7,1.6,14.8c0,54.4-58.3,98.5-130.2,98.5c-52.8,0-98.2-23.9-118.6-58.1
			c9.4,47.4,63.3,83.7,128.6,83.7c71.9,0,130.2-44.1,130.2-98.5C848.6,816.9,844.4,803.3,837,790.9z"/>
		
			<ellipse transform="matrix(0.7889 -0.6145 0.6145 0.7889 -357.7302 573.6855)" class="st9" cx="656.1" cy="807.5" rx="30.2" ry="18.4"/>
		<path class="st10" d="M625.8,477.7c0,0-81.2-15.5-154.5,34.9C406.1,557.4,428,630.9,428,630.9s41.7,21,47-16.6
			c4.7-33.5-2.5-99.2,133.3-119.7C608.3,494.6,632,496.4,625.8,477.7z"/>
		
			<ellipse transform="matrix(2.585748e-02 -0.9997 0.9997 2.585748e-02 156.4743 1119.2793)" class="st9" cx="652.5" cy="479.4" rx="8" ry="8.4"/>
		<g>
			<path class="st1" d="M868.7,619c0,0-2.6,22.2-8.5,35.5c0,0,21.9-25.7,25.8-42.8L868.7,619z"/>
		</g>
	</g>
</g>
</svg>
