<svg t="1622362614985" class="icon" viewBox="0 0 1024 1024" version="1.1" xmlns="http://www.w3.org/2000/svg" p-id="1745" width="128" height="128"><path d="M791.1 766.5c-38.6-4.6-75.6-13.5-109.6-27.4-50.7-20.8-99.1-57.1-133.1-98.1-50.1-60.7-87-125.8-87.4-244.4-0.2-68.7 25.4-142 57.4-190.9 21-32.1 43.5-56.8 73.3-82.9 5.1-4.4 19.8-11.7 19.4-15.6-0.4-4-13.2-6-21.7-7.1-8.7-1.2-17.4-1.8-26.1-1.9-229.2 0-415 185.8-415 415s185.8 416.2 415 415c114.4-0.6 204.9-41.6 274.4-104.5 10.5-9.5 21.1-19.2 30.2-30 14-16.7 14.8-28.4 8.2-29.1-5.4-0.6-42.2 6.9-85 1.9z" fill="#FDBC11" p-id="1746"></path><path d="M823 781.9c-208.3 0-377.2-168.9-377.2-377.2 0-117.5 53.7-222.4 138-291.6-7.3-0.4-14.7-0.6-22.1-0.6-221.3 0-400.6 179.3-400.6 400.6s179.3 400.6 400.6 400.6C680.4 913.7 787 862 860.3 780c-12.3 1.2-24.8 1.9-37.3 1.9z" fill="#F58A33" p-id="1747"></path><path d="M562.2 677.2c-74.5-71.1-116.5-169.6-116.4-272.5 0-117.5 53.7-222.4 138-291.6-7.3-0.4-14.7-0.6-22.1-0.6-221.3 0-400.6 179.3-400.6 400.6 0 25.4 2.4 50.8 7.1 75.8 64.1 72.2 155.6 117.3 257.2 117.3 47.2 0 93.7-9.8 136.8-29z" fill="#F79A4D" p-id="1748"></path><path d="M223.6 297.9C256.1 385 340 447 438.5 447c3.2 0 6.4-0.1 9.6-0.2-1.5-13.9-2.3-28-2.3-42 0-117.5 53.7-222.4 138-291.6-7.3-0.4-14.7-0.6-22.1-0.6-142.1-0.1-266.9 73.9-338.1 185.3z" fill="#F4B04E" p-id="1749"></path><path d="M377.9 157c7 52.8 41.5 97.9 90.6 118.5 23.2-63.4 63-119.5 115.2-162.4-7.3-0.4-14.7-0.6-22.1-0.6-63.9-0.1-127 15.2-183.7 44.5z" fill="#F2C051" p-id="1750"></path></svg>