<?xml version="1.0" standalone="no"?><!DOCTYPE svg PUBLIC "-//W3C//DTD SVG 1.1//EN" "http://www.w3.org/Graphics/SVG/1.1/DTD/svg11.dtd"><svg t="1622444125070" class="icon" viewBox="0 0 1024 1024" version="1.1" xmlns="http://www.w3.org/2000/svg" p-id="18042" xmlns:xlink="http://www.w3.org/1999/xlink" width="128" height="128"><defs><style type="text/css"></style></defs><path d="M365.066 197.39c0 58.569 47.479 106.048 106.048 106.048s106.048-47.479 106.048-106.048S529.683 91.342 471.114 91.342 365.066 138.821 365.066 197.39zM365.066 512c0 58.569 47.479 106.048 106.048 106.048S577.162 570.569 577.162 512s-47.479-106.048-106.048-106.048S365.066 453.431 365.066 512zM365.066 826.61c0 58.569 47.479 106.048 106.048 106.048s106.048-47.479 106.048-106.048-47.479-106.048-106.048-106.048-106.048 47.479-106.048 106.048z" p-id="18043"></path></svg>