<?xml version="1.0" standalone="no"?><!DOCTYPE svg PUBLIC "-//W3C//DTD SVG 1.1//EN" "http://www.w3.org/Graphics/SVG/1.1/DTD/svg11.dtd"><svg t="1621415123877" class="icon" viewBox="0 0 1024 1024" version="1.1" xmlns="http://www.w3.org/2000/svg" p-id="4715" xmlns:xlink="http://www.w3.org/1999/xlink" width="128" height="128"><defs><style type="text/css"></style></defs><path d="M893.056 502.016v281.92h-73.728V502.016c0-188.032-140.992-339.2-311.552-339.2-172.544 0-311.488 153.6-311.488 339.2v281.92H122.56V502.016c0-217.792 157.888-398.848 353.728-414.912V38.976C476.224 16 493.12 0 512.064 0c20.992 0 35.776 18.304 35.776 38.976v48.128c191.552 22.912 345.216 199.424 345.216 414.912z m84.224 323.2c0 22.912-16.896 41.216-37.888 41.216H69.952c-21.056 0-37.888-18.304-37.888-41.216 0-22.912 16.832-41.28 37.888-41.28h869.376c21.12 0 37.888 18.368 37.888 41.28h0.064z m-345.344 41.216c-6.016 43.776-53.76 80.96-107.52 80.96s-99.584-34.944-107.52-80.896h-69.76C353.024 953.92 430.656 1024 524.288 1024c93.568 0 171.264-70.016 177.28-157.568h-69.76z" fill="#333303" p-id="4716"></path></svg>