<?xml version="1.0" standalone="no"?><!DOCTYPE svg PUBLIC "-//W3C//DTD SVG 1.1//EN" "http://www.w3.org/Graphics/SVG/1.1/DTD/svg11.dtd"><svg t="1620789668584" class="icon" viewBox="0 0 1024 1024" version="1.1" xmlns="http://www.w3.org/2000/svg" p-id="14477" xmlns:xlink="http://www.w3.org/1999/xlink" width="128" height="128"><defs><style type="text/css"></style></defs><path d="M828.708571 315.757714L609.426286 492.982857 377.782857 335.725714a30.061714 30.061714 0 0 0-37.010286 2.486857L155.648 504.832a30.061714 30.061714 0 1 0 40.228571 44.763429L363.446857 398.628571l230.765714 156.598858a29.988571 29.988571 0 0 0 35.84-1.462858l236.397715-191.268571a30.061714 30.061714 0 1 0-37.814857-46.811429z m126.390858-240.274285H541.769143V30.793143a30.646857 30.646857 0 0 0-30.72-30.72 30.061714 30.061714 0 0 0-29.476572 29.988571v45.421715H68.242286A68.242286 68.242286 0 0 0 0 143.725714v561.737143c0 37.668571 30.573714 68.242286 68.242286 68.242286h413.330285v34.304L294.765714 949.540571a30.061714 30.061714 0 1 0 36.352 47.981715l150.454857-114.029715s9.801143-7.168 18.285715-13.092571a20.406857 20.406857 0 0 1 23.332571 0.073143l18.578286 13.019428 150.454857 114.102858a29.988571 29.988571 0 0 0 42.130286-5.851429 30.061714 30.061714 0 0 0-5.851429-42.203429l-186.733714-141.531428v-34.304h413.257143a68.242286 68.242286 0 0 0 68.315428-68.242286v-561.737143a68.242286 68.242286 0 0 0-68.242285-68.242285z m8.045714 629.979428c0 4.461714-3.657143 8.045714-8.045714 8.045714H68.242286a8.045714 8.045714 0 0 1-8.045715-8.045714v-561.737143c0-4.461714 3.584-8.045714 8.045715-8.045714h886.857143c4.388571 0 8.045714 3.584 8.045714 8.045714v561.737143z" fill="#333333" p-id="14478"></path></svg>