<?xml version="1.0" standalone="no"?><!DOCTYPE svg PUBLIC "-//W3C//DTD SVG 1.1//EN" "http://www.w3.org/Graphics/SVG/1.1/DTD/svg11.dtd"><svg t="1620637898806" class="icon" viewBox="0 0 1024 1024" version="1.1" xmlns="http://www.w3.org/2000/svg" p-id="5982" xmlns:xlink="http://www.w3.org/1999/xlink" width="128" height="128"><defs><style type="text/css"></style></defs><path d="M438.857143 438.857143 438.857143 365.714286 365.714286 365.714286 365.714286 438.857143 438.857143 438.857143ZM365.714286 512 365.714286 438.857143 292.571429 438.857143 292.571429 512 292.571429 731.428571 146.285714 731.428571 146.285714 146.285714 219.428571 146.285714 219.428571 73.142857 73.142857 73.142857 73.142857 804.571429 292.571429 804.571429 292.571429 1024 950.857143 1024 950.857143 292.571429 804.571429 292.571429 804.571429 73.142857 658.285714 73.142857 658.285714 146.285714 731.428571 146.285714 731.428571 292.571429 512 292.571429 438.857143 292.571429 438.857143 365.714286 512 365.714286 512 512 365.714286 512ZM585.142857 365.714286 877.714286 365.714286 877.714286 950.857143 365.714286 950.857143 365.714286 585.142857 585.142857 585.142857 585.142857 365.714286ZM292.571429 73.142857 292.571429 146.285714 585.142857 146.285714 585.142857 73.142857 512 73.142857 512 0 365.714286 0 365.714286 73.142857 292.571429 73.142857Z" p-id="5983"></path></svg>