<?xml version="1.0" standalone="no"?><!DOCTYPE svg PUBLIC "-//W3C//DTD SVG 1.1//EN" "http://www.w3.org/Graphics/SVG/1.1/DTD/svg11.dtd"><svg t="1620789424185" class="icon" viewBox="0 0 1024 1024" version="1.1" xmlns="http://www.w3.org/2000/svg" p-id="11875" xmlns:xlink="http://www.w3.org/1999/xlink" width="128" height="128"><defs><style type="text/css"></style></defs><path d="M336.879 900.835a50.548 50.548 0 1 0 103.452 0 50.548 50.548 0 1 0-103.452 0z m433.291 0a50.549 50.549 0 1 0 103.455 0 50.549 50.549 0 1 0-103.455 0z m92.928-139.044h-0.116l-496.037 1.825-15.79-1.701c-5.08-2.163-27.46-14.721-35.71-70.32L251.787 213.12a31.414 31.414 0 0 0-0.07-2.316c-3.672-51.243-25.151-80.299-42.523-95.65-19.508-17.24-38.558-21.79-42.179-22.527a30.776 30.776 0 0 0-5.937-0.617l-63.242-0.387h-0.193c-16.866 0-30.591 13.621-30.695 30.51-0.103 16.955 13.557 30.784 30.511 30.887l58.843 0.36c6.653 2.558 24.227 12.108 31.424 43.074a30.5 30.5 0 0 0 0.21 2.305l66.676 501.158 0.06 0.432c15.638 106.007 77.628 120.631 84.645 121.95 0.789 0.149 1.584 0.265 2.382 0.351l20.367 2.194c1.093 0.118 2.19 0.177 3.289 0.177h0.11l497.742-1.83c16.955-0.064 30.648-13.858 30.587-30.812-0.062-16.918-13.794-30.588-30.696-30.588z m89.323-469.54c8.059-35.101 4.077-64.313-11.892-86.917-22.965-32.51-60.684-36.038-64.909-36.334a29.394 29.394 0 0 0-2.239-0.075L351.83 170.59c-16.955 0.054-30.656 13.843-30.601 30.798 0.054 16.955 13.834 30.681 30.797 30.6l519.833-1.66c2.46 0.421 13.037 2.663 18.523 10.43 3.539 5.01 5.039 12.558 4.527 22.013-0.275 1.058-0.499 2.14-0.664 3.247l-2.176 14.662c-0.31 1.25-0.64 2.517-0.998 3.804a30.62 30.62 0 0 0-1.063 10.076l-37.12 250a30.947 30.947 0 0 0-0.922 4.88c-4.959 46.84-25.685 52.697-28.93 53.328l-404.592 36.368c-16.887 1.517-29.346 16.437-27.828 33.324 1.434 15.953 14.826 27.952 30.54 27.952 0.92 0 1.85-0.04 2.784-0.125l405.007-36.405c4.904-0.434 22.983-3.013 41.558-17.937 10.81-8.686 23.471-23.05 32.396-46.208a30.557 30.557 0 0 0 5.963-14.118l43.558-293.368z" p-id="11876"></path></svg>