<svg t="1621944951527" class="icon" viewBox="0 0 1458 1024" version="1.1" xmlns="http://www.w3.org/2000/svg" p-id="19211" width="128" height="128"><path d="M1158.080 827.375l-180.346-180.656 24.55-24.593-31.901-31.955-73.582 73.719-115.354-115.529 141.454-141.744c19.205 6.479 39.323 9.761 59.856 9.761 49.986 0 96.987-19.486 132.351-54.872 54.552-54.688 70.027-135.944 39.425-207.004l-13.149-30.61-83.015 83.182-56.199 0.76 0.743-53.371 84.531-84.663-30.454-13.214c-23.632-10.256-48.741-15.455-74.626-15.455-50.004 0-96.99 19.498-132.298 54.898-25.342 25.369-42.817 57.087-50.54 91.726-7.457 33.451-5.532 68.293 5.549 100.988l-141.393 141.647-201.225-201.562 24.55-24.576-142.262-142.534-81.034 81.074 142.333 142.564 24.518-24.563 201.221 201.549-141.418 141.667c-19.301-6.527-39.488-9.834-60.058-9.834-49.999 0-96.991 19.498-132.32 54.899-54.665 54.745-70.113 136.1-39.352 207.26l13.191 30.49 84.524-84.654 53.237-0.727-0.767 56.32-82.991 83.151 30.526 13.179c23.587 10.17 48.598 15.327 74.34 15.327 49.993 0 96.981-19.488 132.305-54.876 25.293-25.352 42.751-57.036 50.484-91.626 7.467-33.401 5.588-68.192-5.423-100.838l141.488-141.755 115.352 115.516-73.632 73.764 31.897 31.956 24.535-24.58 180.309 180.65c17.384 17.408 40.481 26.995 65.039 26.995 24.547 0 47.645-9.586 65.045-26.995 35.84-35.905 35.833-94.338-0.017-130.254zM1093.054 939.428c-12.515 0-24.282-4.883-33.13-13.752l-180.326-180.65 66.24-66.355 180.328 180.648c18.263 18.292 18.271 48.061 0.017 66.359-8.847 8.867-20.613 13.749-33.128 13.749zM561.066 725.404c23.217 53.989 11.451 115.695-29.976 157.206-26.795 26.852-62.449 41.642-100.392 41.642-7.644 0-15.231-0.601-22.654-1.789l45.641-45.728 1.643-121.090-117.926 1.609-47.313 47.4c-7.523-45.158 7.001-90.777 39.803-123.635 26.822-26.865 62.483-41.66 100.415-41.66 19.661 0 38.732 3.947 56.688 11.735l14.083 6.092 357.095-357.722-6.077-14.096c-23.359-54.039-11.633-115.82 29.873-157.395 26.805-26.863 62.459-41.657 100.393-41.657 7.673 0 15.353 0.616 22.94 1.837l-47.248 47.335-1.631 118.137 120.894-1.639 45.704-45.781c7.4 45.058-7.132 90.572-39.819 123.355-26.844 26.857-62.518 41.646-100.446 41.646-19.579 0-38.604-3.923-56.548-11.662l-14.059-6.052-357.135 357.831 6.051 14.080zM344.723 125.621l78.491 78.63-17.169 17.201-78.504-78.652 17.183-17.18z" p-id="19212"></path></svg>