<svg t="1622362563627" class="icon" viewBox="0 0 1024 1024" version="1.1" xmlns="http://www.w3.org/2000/svg" p-id="1593" width="128" height="128"><path d="M944.3 414.4c-87.7 3.2-113.4-18.9-81.6-70.4-60.1-7.2-61.4-41.1-4.2-107.7-77.7 41-110.4 32.2-104-28.1-57.3 19.6-73.2-10.4-50.5-95.2-52.2 70.6-85.5 76.9-105.9 19.9-43.1 42.5-70.4 22.4-86.8-63.8-16.4 86.3-43.7 106.4-86.8 63.8-20.4 57-53.7 50.8-105.9-19.9 22.7 84.8 6.8 114.8-50.5 95.2 6.4 60.2-26.4 69-104 28.1 57.2 66.6 55.9 100.5-4.2 107.7 31.8 51.5 6.2 73.6-81.6 70.4 80.5 35.2 94 66.3 42.9 98.8 51 32.6 37.5 63.7-42.9 98.8 87.8-3.2 113.4 18.9 81.6 70.4 60.1 7.2 61.4 41.1 4.2 107.7 77.6-41 110.4-32.2 104 28.1 57.3-19.6 73.2 10.4 50.5 95.2 52.2-70.6 85.5-76.9 105.9-19.9 43.1-42.5 70.4-22.4 86.8 63.8 16.4-86.3 43.7-106.4 86.8-63.8 20.4-57 53.7-50.8 105.9 19.9-22.7-84.8-6.8-114.8 50.5-95.2-6.4-60.2 26.4-69 104-28.1-57.2-66.6-55.9-100.5 4.2-107.7-31.9-51.5-6.2-73.7 81.6-70.4-80.5-35.2-94-66.3-42.9-98.8-51.1-32.5-37.6-63.7 42.9-98.8z m-433 458.2c-172.2-47-312.4-187.1-359.4-359.4 47-172.2 187.2-312.4 359.4-359.4 172.2 47 312.4 187.2 359.4 359.4-47.1 172.3-187.2 312.4-359.4 359.4z" fill="#F9A433" p-id="1594"></path><path d="M878.9 513.3c0-4-13.4-29.7-13.5-33.7-0.8-22.1-3.6-22-8.2-42.9 1-1 1.8-2 2.8-2.9-1.3-0.4-2.6-1-3.8-1.4-11.8-50.3-34.5-97.3-66.5-137.8 0.5-1.4 0.9-2.8 1.4-4.1-1.4 0.2-2.9 0.3-4.3 0.4-32.5-40.1-73.3-72.7-119.6-95.5-0.2-1.4-0.4-2.7-0.5-4.1-1.1 0.8-2.4 1.4-3.5 2.1-45.3-21.6-71.9-33.8-125.3-34.1-0.7-1.2-25.6-20.5-26.3-21.7-0.7 1.2-28.9 20.6-29.6 21.7-53.4 0.3-76.6 12.5-122 34.1-1.2-0.7-2.4-1.4-3.5-2.1-0.1 1.4-0.4 2.7-0.5 4.1-46.3 22.8-87 55.4-119.5 95.5-1.4-0.2-2.9-0.2-4.3-0.4 0.5 1.4 0.9 2.8 1.4 4.1-32 40.5-54.7 87.5-66.5 137.8-1.3 0.5-2.6 1-3.9 1.4 1 0.9 1.9 2 2.8 2.9-4.8 21.5-7.6 23.9-8.3 46.7-0.1 3.3-13.9 26.6-13.9 29.9 0 3 13.8 29.7 13.9 32.6 0.6 23.2 3.5 22.1 8.3 43.9-1 1-1.8 2-2.8 3 1.3 0.4 2.6 1 3.9 1.4 11.8 50.2 34.5 97.3 66.5 137.8-0.5 1.4-0.8 2.8-1.4 4.1 1.4-0.2 2.9-0.3 4.3-0.4 32.5 40.1 73.2 72.7 119.5 95.5 0.2 1.4 0.4 2.7 0.5 4.1 1.2-0.8 2.4-1.4 3.5-2.1 45.3 21.6 62.9 33.7 116.3 34.1 0.7 1.2 34.6 20.4 35.3 21.6 0.7-1.2 29.4-20.5 30.1-21.6 53.4-0.3 76.1-12.5 121.5-34.1 1.2 0.7 2.4 1.4 3.5 2.1 0.1-1.4 0.4-2.7 0.5-4.1 46.3-22.8 87.1-55.4 119.6-95.5 1.4 0.2 2.9 0.2 4.3 0.4-0.5-1.4-0.9-2.8-1.4-4.1 32-40.5 54.7-87.5 66.5-137.8 1.3-0.5 2.5-1 3.8-1.4-1-0.9-1.9-2-2.9-3 4.8-21.6 7.7-20.2 8.3-43 0.1-3.2 13.5-30.2 13.5-33.5zM511.3 830.1c-175 0-316.9-141.9-316.9-316.9s141.8-316.9 316.9-316.9 316.9 141.9 316.9 316.9-141.9 316.9-316.9 316.9z" fill="#F9A433" p-id="1595"></path><path d="M511.3 513.2m-281.2 0a281.2 281.2 0 1 0 562.4 0 281.2 281.2 0 1 0-562.4 0Z" fill="#F58A33" p-id="1596"></path><path d="M511.3 232c-131.5 0-241.9 90.3-272.7 212.2 30.8 122 141.2 212.2 272.7 212.2S753.2 566.1 784 444.2C753.2 322.3 642.8 232 511.3 232z" fill="#F79A4D" p-id="1597"></path><path d="M400.4 348.9a123.8 100.6 0 1 0 247.6 0 123.8 100.6 0 1 0-247.6 0Z" fill="#F4B04E" p-id="1598"></path><path d="M481 296.2a51 33.9 0 1 0 102 0 51 33.9 0 1 0-102 0Z" fill="#FFEEC5" p-id="1599"></path></svg>