<svg t="1621597838475" class="icon" viewBox="0 0 1024 1024" version="1.1" xmlns="http://www.w3.org/2000/svg" p-id="9691" width="128" height="128"><path d="M416 960H160a32 32 0 0 1-32-32V96a32 32 0 0 1 32-32h704a32 32 0 0 1 32 32v288a32 32 0 0 0 64 0V96a96 96 0 0 0-96-96H160a96 96 0 0 0-96 96v832a96 96 0 0 0 96 96h256a32 32 0 0 0 0-64z" p-id="9692"></path><path d="M736 448a288 288 0 1 0 288 288 288 288 0 0 0-288-288z m0 512a224 224 0 1 1 224-224 224 224 0 0 1-224 224z" p-id="9693"></path><path d="M880 704h-112v-112a32 32 0 0 0-64 0v144a32 32 0 0 0 32 32h144a32 32 0 0 0 0-64zM800 224a32 32 0 0 0-32-32H256a32 32 0 0 0 0 64h512a32 32 0 0 0 32-32zM576 384a32 32 0 0 0-32-32H256a32 32 0 0 0 0 64h288a32 32 0 0 0 32-32zM256 512a32 32 0 0 0 0 64h128a32 32 0 0 0 0-64z" p-id="9694"></path></svg>