<?xml version="1.0" standalone="no"?><!DOCTYPE svg PUBLIC "-//W3C//DTD SVG 1.1//EN" "http://www.w3.org/Graphics/SVG/1.1/DTD/svg11.dtd"><svg t="1620904138880" class="icon" viewBox="0 0 1024 1024" version="1.1" xmlns="http://www.w3.org/2000/svg" p-id="22799" xmlns:xlink="http://www.w3.org/1999/xlink" width="128" height="128"><defs><style type="text/css"></style></defs><path d="M512 1005.056c-272.384 0-493.568-220.672-493.568-493.568S239.616 17.92 512 17.92s493.568 220.672 493.568 493.568-221.184 493.568-493.568 493.568z m267.264-694.272c-20.992 12.8-44.032 22.016-69.12 26.624-19.968-22.528-48.128-37.376-79.36-37.888-59.904-1.024-108.544 50.176-108.544 114.176 0 9.216 1.024 17.92 2.56 26.624C435.2 434.688 355.328 387.584 302.08 315.904c-9.216 16.896-14.848 37.376-14.848 58.88 0 40.448 18.944 76.8 48.128 97.792-17.92-1.024-34.304-6.144-49.152-15.36v1.536c0 56.832 37.376 104.448 87.04 115.2-9.216 2.56-18.944 4.096-28.672 4.096-7.168 0-13.824-1.024-20.48-2.048 13.824 46.592 53.76 80.384 101.376 81.408-37.376 31.232-83.968 49.664-134.656 49.664-8.704 0-17.408-0.512-26.112-1.536 48.128 33.28 104.96 52.736 166.4 52.736 199.68 0 308.736-175.616 308.736-327.68 0-5.12 0-9.728-0.512-14.848 20.992-15.872 39.424-35.84 54.272-58.88-19.456 8.704-40.448 14.848-62.464 17.408 23.04-14.336 39.936-36.864 48.128-63.488z" p-id="22800"></path></svg>