<?xml version="1.0" standalone="no"?><!DOCTYPE svg PUBLIC "-//W3C//DTD SVG 1.1//EN" "http://www.w3.org/Graphics/SVG/1.1/DTD/svg11.dtd"><svg t="1621944401433" class="icon" viewBox="0 0 1109 1024" version="1.1" xmlns="http://www.w3.org/2000/svg" p-id="11383" xmlns:xlink="http://www.w3.org/1999/xlink" width="138.625" height="128"><defs><style type="text/css"></style></defs><path d="M756.266667 1006.208H80.256c-21.973333 0-47.146667-9.386667-59.733333-28.288-15.701333-18.858667-22.016-40.874667-18.858667-62.890667l12.586667-91.178666c3.157333-28.288 22.016-50.304 47.146666-62.848 44.032-18.901333 122.624-50.346667 210.688-72.32C228.053333 638.293333 190.293333 556.629333 190.293333 415.146667c0-213.802667 125.738667-257.834667 229.546667-257.834667 103.68 0 229.504 44.032 229.504 257.834667 0 141.482667-34.602667 226.346667-78.634667 273.493333a907.989333 907.989333 0 0 1 207.530667 72.362667c25.173333 12.544 44.032 34.56 47.146667 62.848l12.586666 91.178666c3.157333 22.016-3.157333 47.189333-18.858666 62.890667-18.858667 18.858667-40.874667 28.288-62.890667 28.288zM416.682667 223.317333c-116.309333 0-166.613333 59.733333-166.613334 194.986667 0 172.885333 56.576 238.933333 106.88 264.106667 12.586667 6.272 18.858667 18.816 15.744 34.56-3.157333 12.586667-12.586667 25.173333-25.173333 25.173333-110.037333 15.701333-220.074667 59.733333-264.106667 78.592-6.272 3.114667-9.429333 6.272-9.429333 12.544l-12.586667 91.221333c0 6.272 3.157333 12.544 3.157334 15.701334 3.157333 3.157333 6.272 6.272 12.586666 6.272H753.066667c6.314667 0 12.586667-3.114667 12.586666-6.272 3.157333-3.157333 6.272-6.272 3.157334-15.701334l-12.586667-91.221333c0-6.272-3.157333-12.544-9.429333-12.544-40.874667-18.858667-150.912-62.890667-260.949334-78.634667-12.586667-3.114667-25.173333-12.544-25.173333-25.173333 0-12.544 3.157333-28.245333 15.744-34.56 69.12-34.56 103.722667-125.738667 103.722667-264.106667 3.157333-135.168-47.146667-194.944-163.498667-194.944z"  p-id="11384"></path><path d="M988.928 849.024h-84.906667c-18.858667 0-31.402667-12.586667-31.402666-31.445333s12.544-31.445333 31.445333-31.445334h84.906667c6.272 0 12.544-3.157333 12.544-6.272 3.157333-3.157333 6.272-6.314667 3.157333-15.744l-12.586667-91.178666c0-6.272-6.314667-12.586667-9.429333-12.586667-40.874667-18.858667-150.912-62.848-260.992-78.592-12.544-3.157333-25.173333-12.586667-25.173333-25.173333 0-12.544 3.2-28.288 15.786666-34.56 69.12-34.56 103.722667-125.781333 103.722667-264.106667 0-135.210667-50.304-194.944-166.613333-194.944-59.733333 0-103.765333 15.744-128.938667 50.346667-9.386667 12.544-31.445333 15.701333-43.989333 6.272-12.586667-9.472-15.744-31.445333-6.314667-44.032 37.717333-50.346667 100.608-75.477333 179.2-75.477334 103.765333 0 229.546667 44.032 229.546667 257.834667 0 141.482667-34.56 226.389333-78.592 273.536a907.989333 907.989333 0 0 1 207.488 72.32c25.173333 12.586667 44.032 34.56 47.189333 62.890667l12.544 91.178666a86.229333 86.229333 0 0 1-18.858667 66.005334c-15.701333 18.901333-37.717333 25.173333-59.733333 25.173333z"  p-id="11385"></path></svg>